<svg xmlns="http://www.w3.org/2000/svg" viewBox="0 0 24 24"><defs><style>.cls-1{fill:#fff;fill-rule:evenodd;}</style></defs><g id="Layer_2" data-name="Layer 2"><g id="Layer_1-2" data-name="Layer 1"><path class="cls-1" d="M19.86,17.2a1,1,0,0,1-.26-.36,4.36,4.36,0,0,1,.3-2.2,3.28,3.28,0,0,0-.11-1.87c-.08-.21-.11-.48-.41-.4a4.14,4.14,0,0,1-1.57-.07,1.73,1.73,0,0,1-1.26-1.37,3.94,3.94,0,0,1,0-1.9c.19-.51.67-.7,1.1-.94.2-.11,1.17-.27,1.14-.73-.23-.43-2.29.06-2.37-.61a2.36,2.36,0,0,1,.15-1.55c.27-.56,0-.48-.12-1.16,0-.1.21-.35.22-.44a10,10,0,0,1,2,1.46,9.3,9.3,0,0,1,2.91,6.76A9.16,9.16,0,0,1,19.86,17.2Zm-4.42-.3c-.41.65-.31,1.13-1.24,1.62-.52.28-.89.36-1.17,1.1s-.73.72-1.88,1.33-1.6,0-1.69-.47a5.11,5.11,0,0,1,.19-1.56s.11-.33-.7-.7C6.89,17.29,8.66,14,8.66,14a6.21,6.21,0,0,0-3.29-1.95A3.62,3.62,0,0,1,2.8,9.87,9.5,9.5,0,0,1,5.31,5.32,9.46,9.46,0,0,1,12,2.4a7.62,7.62,0,0,1,1.67.21,7.52,7.52,0,0,1-2.18,1.87c-1.11.41-1.62,1.08-1.63,1.8,0,.37.77,1,.77,1.9,0,1.44-1.07,1.48-1.19.87-.28-1.39-1.35-1-2.63-.89S4.78,9.81,5.6,10.41s.79-.19,1.1-.41.54-.32.78,0,.76.49.71,1.14-.19,1.2.69,1.2.9.2,1.45.48a5.18,5.18,0,0,0,1.52.32c.46.09,1.06,1,1.06,1a4.86,4.86,0,0,1,2.09,1C15.36,15.45,15.86,16.25,15.44,16.9ZM12,0h0a12,12,0,0,0,0,24h0A12,12,0,0,0,12,0Z"/></g></g></svg>